{"title":"Olympus Has Fallen (2013) HQ 1080p x264 DTS-HDMA ESub -DDR","uid":14817320,"size":12496425547,"categoryP":"video","categoryS":"hd___movies","magnet":"?xt=urn:btih:5a46044a055d97b760769563888b9efbc8bc31d8&amp;dn=Olympus+Has+Fallen+%282013%29+HQ+1080p+x264+DTS-HDMA+ESub+-DDR&amp;tr=udp%3A%2F%2Ftracker.leechers-paradise.org%3A6969&amp;tr=udp%3A%2F%2Fzer0day.ch%3A1337&amp;tr=udp%3A%2F%2Fopen.demonii.com%3A1337&amp;tr=udp%3A%2F%2Ftracker.coppersurfer.tk%3A6969&amp;tr=udp%3A%2F%2Fexodus.desync.com%3A6969","seeders":4,"leechers":6,"uploader":"SaM","files":2,"time":1465242942,"description":"\n- HollywooD MoviE -\r\n**- Olympus Has Fallen -**\r\n**- -**\r\n- (2013) -\r\n** HQ 1080p Blu-Ray / x264 / DTS 5.1 **\r\nEnglish subtitle(s)\r\n\r\n~* SCREENSHOTS *~\r\n \nhttp://extraimago.com/image/a4ya \nhttp://extraimago.com/image/a4y8 \nhttp://extraimago.com/image/a4qf \nhttp://extraimago.com/image/a4qW \nhttp://extraimago.com/image/a4qA \nhttp://extraimago.com/image/a4qv \nhttp://extraimago.com/image/a4qu \nhttp://extraimago.com/image/a4qV \nhttp://extraimago.com/image/a4q6 \nhttp://extraimago.com/image/a4qx\r\n\r\n[ Specs ]\r\nGeneral\r\nSource = BD50 @ IPT\r\n\r\nFormat : Matroska\r\nFile size : 11.5 GiB\r\nDuration : 1h 59mn\r\nOverall bit rate : 13.9 Mbps\r\nEncoded date : UTC 2016-06-06 15:00:37\r\n\r\nVideo\r\nID : 1\r\nFormat : AVC\r\nFormat/Info : Advanced Video Codec\r\nFormat profile :   \r\nFormat settings, CABAC : Yes\r\nFormat settings, ReFrames : 4 frames\r\nDuration : 1h 59mn\r\nBit rate : 10 000 Kbps\r\nWidth : 1 920 pixels\r\nHeight : 808 pixels\r\nDisplay aspect ratio : 2.40:1\r\nFrame rate mode : Constant\r\nFrame rate : 24.000 fps\r\ncolor space : YUV\r\nChroma subsampling : 4:2:0\r\nBit depth : 8 bits\r\nScan type : Progressive\r\nBits/(Pixel*Frame) : 0.269\r\nStream size : 8.31 GiB (72%)\r\nForced : No\r\nMatrix coefficients : BT.709\r\n\r\nAudio\r\nID : 2\r\nFormat : DTS\r\nFormat/Info : Digital Theater Systems\r\nFormat profile : MA / Core\r\nMode : 16\r\nFormat settings, Endianness : Big\r\nCodec ID : A_DTS\r\nDuration : 1h 59mn\r\nBit rate mode : Variable / Constant\r\nBit rate : 3 840 Kbps / 1 509 Kbps\r\nChannel(s) : 6 channels\r\nChannel positions : Front: L C R, Side: L R, LFE\r\nSampling rate : 48.0 KHz\r\nFrame rate : 93.750 fps (512 spf)\r\nBit depth : 24 bits\r\nCompression mode : Lossless / Lossy\r\nStream size : 3.20 GiB (28%)\r\nLanguage : English\r\nDefault : Yes\r\nForced : No\r\n\r\nText\r\nID : 3\r\nFormat : PGS\r\nMuxing mode : zlib\r\nCodec ID : S_HDMV/PGS\r\nCodec ID/Info : Picture based subtitle format used on BDs/HD-DVDs\r\nDuration : 1h 48mn\r\nBit rate : 32.6 Kbps\r\nCount of elements : 1949\r\nStream size : 25.4 MiB (0%)\r\nLanguage : English\r\nDefault : Yes\r\nForced : No\r\n\r\nChapters: YES\r\nSample: YES - included\r\n\r\nA DDR Exclusive Release...!","torrent":{"xt":"urn:btih:5a46044a055d97b760769563888b9efbc8bc31d8","amp;dn":"Olympus+Has+Fallen+%282013%29+HQ+1080p+x264+DTS-HDMA+ESub+-DDR","amp;tr":["udp%3A%2F%2Ftracker.leechers-paradise.org%3A6969","udp%3A%2F%2Fzer0day.ch%3A1337","udp%3A%2F%2Fopen.demonii.com%3A1337","udp%3A%2F%2Ftracker.coppersurfer.tk%3A6969","udp%3A%2F%2Fexodus.desync.com%3A6969"],"infoHash":"5a46044a055d97b760769563888b9efbc8bc31d8","infoHashBuffer":{"type":"Buffer","data":[90,70,4,74,5,93,151,183,96,118,149,99,136,139,158,251,200,188,49,216]},"announce":[],"urlList":[]}}